<?xml version="1.0" standalone="no"?>
<!DOCTYPE svg PUBLIC "-//W3C//DTD SVG 20010904//EN"
 "http://www.w3.org/TR/2001/REC-SVG-20010904/DTD/svg10.dtd">
<svg version="1.0" xmlns="http://www.w3.org/2000/svg"
 width="512.000000pt" height="512.000000pt" viewBox="0 0 512.000000 512.000000"
 preserveAspectRatio="xMidYMid meet">
<metadata>
Created by potrace 1.14, written by Peter Selinger 2001-2017
</metadata>
<g transform="translate(0.000000,512.000000) scale(0.100000,-0.100000)"
fill="#000000" stroke="none">
<path d="M2350 5029 c-397 -34 -780 -164 -1130 -385 -275 -173 -570 -467 -745
-744 -342 -542 -465 -1171 -350 -1795 127 -688 548 -1299 1145 -1661 394 -239
822 -357 1290 -357 396 0 744 79 1085 248 756 373 1257 1070 1371 1905 23 168
23 472 0 640 -134 983 -812 1777 -1756 2057 -286 84 -614 118 -910 92z m-768
-921 c70 -32 133 -96 167 -168 l26 -55 5 -548 c5 -528 6 -549 24 -563 11 -8
29 -14 39 -14 13 0 253 232 671 649 358 357 662 658 676 669 47 36 92 54 121
48 16 -3 29 -1 29 4 0 18 21 11 139 -46 220 -107 300 -144 311 -144 5 0 10 -4
10 -10 0 -5 6 -10 13 -10 6 0 34 -11 62 -23 l49 -23 -539 -545 c-1005 -1013
-2350 -2349 -2366 -2349 -42 0 -41 -39 -43 1578 -1 1331 1 1551 13 1566 13 16
38 17 275 14 258 -3 262 -3 318 -30z m1438 -1598 c0 -5 -4 -10 -10 -10 -5 0
-10 5 -10 10 0 6 5 10 10 10 6 0 10 -4 10 -10z m-286 -315 c4 -10 -1 -15 -14
-15 -13 0 -18 5 -14 15 4 8 10 15 14 15 4 0 10 -7 14 -15z m578 -301 c79 -37
206 -95 283 -129 231 -104 398 -185 417 -202 21 -19 24 -62 6 -86 -7 -9 -125
-68 -263 -131 -137 -62 -323 -148 -413 -190 -90 -42 -174 -76 -188 -76 -13 0
-33 9 -44 20 -19 19 -20 33 -20 420 0 387 1 401 20 420 11 11 29 20 40 20 11
0 84 -30 162 -66z m-1186 -131 c-10 -10 -19 5 -10 18 6 11 8 11 12 0 2 -7 1
-15 -2 -18z m-256 -433 c0 -5 -4 -10 -10 -10 -5 0 -10 5 -10 10 0 6 5 10 10
10 6 0 10 -4 10 -10z"/>
<path d="M3423 4083 c9 -2 23 -2 30 0 6 3 -1 5 -18 5 -16 0 -22 -2 -12 -5z"/>
<path d="M3573 4003 c9 -2 23 -2 30 0 6 3 -1 5 -18 5 -16 0 -22 -2 -12 -5z"/>
<path d="M3658 3963 c6 -2 18 -2 25 0 6 3 1 5 -13 5 -14 0 -19 -2 -12 -5z"/>
<path d="M3748 3923 c7 -3 16 -2 19 1 4 3 -2 6 -13 5 -11 0 -14 -3 -6 -6z"/>
</g>
</svg>
